Coordinates
version=1
nRows=11
nColumns=40
inDegrees=yes

Units are S.I. units (second, meters, Newtons, ...)
If the header above contains a line with 'inDegrees', this indicates whether rotational values are in degrees (yes) or radians (no).

endheader
time	pelvis_tilt	pelvis_list	pelvis_rotation	pelvis_tx	pelvis_ty	pelvis_tz	hip_flexion_r	hip_adduction_r	hip_rotation_r	knee_angle_r	knee_angle_r_beta	ankle_angle_r	subtalar_angle_r	mtp_angle_r	hip_flexion_l	hip_adduction_l	hip_rotation_l	knee_angle_l	knee_angle_l_beta	ankle_angle_l	subtalar_angle_l	mtp_angle_l	lumbar_extension	lumbar_bending	lumbar_rotation	arm_flex_r	arm_add_r	arm_rot_r	elbow_flex_r	pro_sup_r	wrist_flex_r	wrist_dev_r	arm_flex_l	arm_add_l	arm_rot_l	elbow_flex_l	pro_sup_l	wrist_flex_l	wrist_dev_l
      4.80000000	     35.57202229	      1.13251723	   -176.35385640	      0.47252125	      0.56177806	     -0.61297034	    107.92007547	    -15.37397160	      0.33512600	     91.43639590	      1.59586616	     23.69197678	      0.00000000	      0.00000000	    107.82926868	     -7.99265586	      4.63365829	     89.44708710	      1.56114618	     20.77252498	      0.00000000	      0.00000000	    -25.45057450	      3.32311220	      2.34263105	     61.23471691	    -10.81397164	     41.64192235	      1.50670952	     86.68770685	      0.00000000	      0.00000000	     50.98486097	     -3.03047909	     61.12827156	      0.73609584	      3.23098445	      0.00000000	      0.00000000
      4.80500000	     35.58312872	      1.06775637	   -176.35767626	      0.47233951	      0.56199951	     -0.61292587	    107.91408838	    -15.35131344	      0.41121945	     91.41522507	      1.59549666	     23.76290399	      0.00000000	      0.00000000	    107.78671464	     -7.99361542	      4.57344009	     89.41588333	      1.56060157	     20.75397600	      0.00000000	      0.00000000	    -25.45512785	      3.26390276	      2.31355510	     61.24031855	    -10.79370082	     41.29883545	      1.51335089	     86.76272352	      0.00000000	      0.00000000	     51.02936365	     -3.00649779	     60.84724324	      0.73454861	      3.18794022	      0.00000000	      0.00000000
      4.81000000	     35.59951010	      1.09329619	   -176.33774078	      0.47224467	      0.56225156	     -0.61286339	    107.87580295	    -15.35134376	      0.41053724	     91.36301451	      1.59458542	     23.78250334	      0.00000000	      0.00000000	    107.76828429	     -7.96143278	      4.57736125	     89.34509830	      1.55936614	     20.67795154	      0.00000000	      0.00000000	    -25.45016900	      3.30945506	      2.28601081	     61.22901534	    -10.77510060	     41.52697061	      1.51685016	     86.73971735	      0.00000000	      0.00000000	     51.00607772	     -3.01832421	     61.03001499	      0.73219405	      3.22002652	      0.00000000	      0.00000000
      4.81500000	     35.61616796	      1.07167860	   -176.35422101	      0.47205814	      0.56251217	     -0.61287188	    107.85180849	    -15.31491460	      0.43230441	     91.32264559	      1.59388085	     23.77413354	      0.00000000	      0.00000000	    107.73735831	     -7.97542675	      4.56553373	     89.32360521	      1.55899101	     20.71656279	      0.00000000	      0.00000000	    -25.44467588	      3.29454277	      2.28414406	     61.23315852	    -10.74565745	     41.41140385	      1.51054837	     86.73588029	      0.00000000	      0.00000000	     51.02909072	     -3.00441709	     60.80196492	      0.72892025	      3.21978252	      0.00000000	      0.00000000
      4.82000000	     35.64521261	      1.03411091	   -176.39312008	      0.47188465	      0.56281345	     -0.61294826	    107.83046462	    -15.23779273	      0.46946792	     91.26052852	      1.59279670	     23.79912579	      0.00000000	      0.00000000	    107.70358381	     -8.01987030	      4.53567530	     89.27050316	      1.55806421	     20.68404406	      0.00000000	      0.00000000	    -25.44063469	      3.24065783	      2.31224124	     61.25627354	    -10.73368246	     41.02770139	      1.50623521	     86.68418255	      0.00000000	      0.00000000	     51.12363190	     -2.93103588	     60.12095219	      0.73136985	      3.20941131	      0.00000000	      0.00000000
      4.82500000	     35.68884573	      0.95707279	   -176.34894782	      0.47168259	      0.56309523	     -0.61281482	    107.85447000	    -15.26368093	      0.57461988	     91.22560151	      1.59218711	     23.76899426	      0.00000000	      0.00000000	    107.66190035	     -7.96118808	      4.45473587	     89.21545235	      1.55710339	     20.65841700	      0.00000000	      0.00000000	    -25.40322145	      3.19443825	      2.25630628	     61.22130380	    -10.72145819	     40.70854450	      1.50567130	     86.78278061	      0.00000000	      0.00000000	     51.12677035	     -2.89596295	     60.03925904	      0.73017914	      3.19031811	      0.00000000	      0.00000000
      4.83000000	     35.35994351	      1.11438945	   -176.35902931	      0.47081216	      0.56393822	     -0.61278229	    107.36486347	    -15.30436456	      0.35302799	     91.25720575	      1.59273871	     23.89561003	      0.00000000	      0.00000000	    107.29278664	     -7.89403890	      4.70481565	     89.26921928	      1.55804180	     20.85499553	      0.00000000	      0.00000000	    -25.80509275	      3.40210190	      2.23257601	     61.28951035	    -10.64043563	     41.71596949	      1.50592845	     86.74473600	      0.00000000	      0.00000000	     51.66258188	     -2.59865002	     55.43980592	      0.75033792	      3.27496474	      0.00000000	      0.00000000
      4.83500000	     35.68615855	      0.94164835	   -176.33760651	      0.47118082	      0.56383474	     -0.61282761	    107.73775187	    -15.19645018	      0.63584551	     91.13952777	      1.59068484	     23.81495718	      0.00000000	      0.00000000	    107.53268865	     -7.92760520	      4.45212503	     89.10791925	      1.55522658	     20.64982494	      0.00000000	      0.00000000	    -25.44677154	      3.19827627	      2.30712956	     61.21432912	    -10.73331667	     40.03953860	      1.50319571	     86.70249742	      0.00000000	      0.00000000	     51.17242711	     -2.79452622	     59.54542013	      0.73141614	      3.23250075	      0.00000000	      0.00000000
      4.84000000	     35.75315826	      0.94558386	   -176.26883182	      0.47102131	      0.56423695	     -0.61272276	    107.74110118	    -15.23032057	      0.67938965	     91.07723727	      1.58959766	     23.80963890	      0.00000000	      0.00000000	    107.55084628	     -7.86093397	      4.41987577	     89.03842097	      1.55401361	     20.53906385	      0.00000000	      0.00000000	    -25.39701286	      3.23550751	      2.26893982	     61.21471750	    -10.72878579	     39.66988192	      1.49908422	     86.73487802	      0.00000000	      0.00000000	     51.24512090	     -2.70242859	     58.88239022	      0.73238855	      3.22364071	      0.00000000	      0.00000000
      4.84500000	     35.80791455	      0.86109559	   -176.21139457	      0.47079496	      0.56457523	     -0.61252897	    107.78528124	    -15.23737529	      0.84694594	     91.05501398	      1.58920979	     23.87307509	      0.00000000	      0.00000000	    107.50978073	     -7.81917052	      4.25793029	     88.96499663	      1.55273211	     20.49514534	      0.00000000	      0.00000000	    -25.36190559	      3.19060937	      2.17936775	     61.20226842	    -10.69354406	     39.24863967	      1.48883553	     86.87350752	      0.00000000	      0.00000000	     51.42603387	     -2.54692279	     57.20022436	      0.74228686	      3.17912903	      0.00000000	      0.00000000
      4.85000000	     35.81235004	      0.92534563	   -176.21223440	      0.47052684	      0.56507271	     -0.61263941	    107.68103187	    -15.23018470	      0.75098386	     90.98235586	      1.58794167	     23.76913730	      0.00000000	      0.00000000	    107.43791491	     -7.75793784	      4.39305059	     88.86717926	      1.55102488	     20.52805304	      0.00000000	      0.00000000	    -25.38598632	      3.25169357	      2.26536488	     61.20691877	    -10.72077323	     38.81946548	      1.49453949	     86.85369695	      0.00000000	      0.00000000	     51.46828798	     -2.46458700	     57.00418088	      0.74180546	      3.15841028	      0.00000000	      0.00000000
